Coordinates
version=1
nRows=29
nColumns=24
inDegrees=yes

Units are S.I. units (second, meters, Newtons, ...)
Angles are in degrees.

endheader
time	pelvis_tilt	pelvis_list	pelvis_rotation	pelvis_tx	pelvis_ty	pelvis_tz	hip_flexion_r	hip_adduction_r	hip_rotation_r	knee_angle_r	ankle_angle_r	subtalar_angle_r	mtp_angle_r	hip_flexion_l	hip_adduction_l	hip_rotation_l	knee_angle_l	ankle_angle_l	subtalar_angle_l	mtp_angle_l	lumbar_extension	lumbar_bending	lumbar_rotation
      1.21000000	     22.09009469	     -0.46670430	     -1.38239690	     -0.08449132	      0.97376586	     -0.01890391	      0.07301965	     -4.47608238	    -15.10822622	    -33.06654293	     11.84011983	      0.79952180	     33.06030388	    -35.18367326	      5.80971939	    -14.55670982	      3.94898019	     10.38272252	     14.82014642	     14.90161767	    -29.47656034	     -1.58907136	      0.49332234
      1.21500000	     22.34015688	     -0.77276676	     -1.05366348	     -0.07857183	      0.97360241	     -0.01907805	     -0.45213549	     -3.90868092	    -15.81266273	    -30.58777868	     11.41682332	      0.81944747	     33.44566895	    -35.93503091	      5.38234797	    -14.74358718	      4.11852486	     10.54779747	     15.27790831	     14.67680412	    -29.73473169	     -1.15807955	      0.33686589
      1.22000000	     22.51788768	     -0.99115710	     -0.71620728	     -0.07274006	      0.97329268	     -0.01923234	     -0.85166895	     -3.41765809	    -16.46359543	    -28.19753782	     10.97467059	      0.84440692	     33.57641293	    -36.54975989	      5.00989116	    -14.75539158	      4.18120221	     10.86913011	     15.37877188	     14.56394914	    -29.91942771	     -0.80435625	      0.12829370
      1.22500000	     22.73232417	     -1.24032442	     -0.35410169	     -0.06674360	      0.97298363	     -0.01937840	     -1.35106165	     -2.87819339	    -17.20778617	    -25.70933051	     10.51260911	      0.96992901	     33.72845512	    -37.23520512	      4.59886505	    -14.79421295	      4.29643061	     11.08787724	     15.58245415	     14.48541385	    -30.13182848	     -0.40332545	     -0.03925705
      1.23000000	     22.91049402	     -1.41603966	     -0.02565978	     -0.06074072	      0.97255504	     -0.01944989	     -1.76324876	     -2.41317191	    -17.92005615	    -23.35238208	     10.13015240	      1.27930368	     33.92945964	    -37.84684010	      4.26470140	    -14.85290321	      4.35189828	     11.31865044	     15.80479691	     14.42219137	    -30.31449166	     -0.10870843	     -0.23749802
      1.23500000	     23.07368475	     -1.66947206	      0.23542148	     -0.05451616	      0.97210981	     -0.01947660	     -2.19876640	     -1.85437936	    -18.62769291	    -20.94090790	      9.71918610	      1.78813552	     34.53751070	    -38.42062756	      3.90939153	    -15.26416339	      4.34386548	     11.61218562	     16.35755309	     14.18975259	    -30.42712183	      0.25545006	     -0.31150716
      1.24000000	     23.24849203	     -1.83568443	      0.54792915	     -0.04852598	      0.97158405	     -0.01944815	     -2.62989421	     -1.35466216	    -19.37868765	    -18.57122053	      9.42513194	      2.56983600	     34.72443978	    -39.03555614	      3.58745582	    -15.21643202	      4.42498104	     11.78895965	     16.27748337	     14.12572494	    -30.58831820	      0.53982636	     -0.53583879
      1.24500000	     23.39687533	     -2.01497701	      0.79423869	     -0.04233174	      0.97099180	     -0.01932813	     -3.02581088	     -0.83877478	    -20.06139286	    -16.27984180	      9.13564999	      3.63285117	     35.02603787	    -39.62243998	      3.29141092	    -15.31683635	      4.47057762	     11.99504682	     16.36217619	     14.08487340	    -30.69982640	      0.80307938	     -0.64940624
      1.25000000	     23.52161436	     -2.16182874	      0.99352432	     -0.03608018	      0.97030060	     -0.01899455	     -3.38480383	     -0.34916560	    -20.66651695	    -14.06391048	      8.82865661	      4.80495024	     35.34444437	    -40.18248515	      3.03573177	    -15.42828795	      4.49702449	     12.20467256	     16.48540238	     14.04536267	    -30.77583600	      1.00415674	     -0.73275118
      1.25500000	     23.64586812	     -2.34694886	      1.15381016	     -0.02962526	      0.96953063	     -0.01865852	     -3.76540130	      0.18050385	    -21.29689635	    -11.87464108	      8.48700156	      6.04765781	     35.56503396	    -40.78427700	      2.78671203	    -15.65824786	      4.58619948	     12.37032470	     16.63963754	     14.01069310	    -30.84034452	      1.23627955	     -0.77722015
      1.26000000	     23.78063688	     -2.48901050	      1.36808895	     -0.02329321	      0.96878264	     -0.01834974	     -4.17408243	      0.68469876	    -21.99407416	     -9.71402594	      7.96713699	      7.12748828	     35.76451823	    -41.32966088	      2.51672579	    -15.84926403	      4.56259812	     12.60382728	     16.83837166	     13.98406232	    -30.91212999	      1.44830283	     -0.86818151
      1.26500000	     23.89424362	     -2.58999265	      1.60429982	     -0.01717060	      0.96792931	     -0.01815988	     -4.49200095	      1.13071439	    -22.64073542	     -7.74547147	      7.43838140	      8.08949679	     35.95261807	    -41.84070914	      2.27659951	    -15.88371357	      4.54286949	     12.83405578	     16.83394277	     13.94483807	    -30.99273429	      1.62647616	     -1.00721053
      1.27000000	     23.95710503	     -2.57720175	      1.82146181	     -0.01133909	      0.96702742	     -0.01777148	     -4.72352270	      1.46290903	    -23.14639713	     -5.89314650	      6.94302520	      8.91808195	     36.14490902	    -42.26507853	      2.11796253	    -15.72560229	      4.49224609	     13.04867862	     16.74551342	     13.89343406	    -31.04680740	      1.67205042	     -1.20691817
      1.27500000	     24.04512043	     -2.62115893	      2.00320680	     -0.00555623	      0.96616500	     -0.01725363	     -4.98073681	      1.87186004	    -23.60830271	     -4.10983522	      6.30250681	      9.53750234	     36.27226063	    -42.70243975	      1.92078472	    -15.67880566	      4.42181459	     13.23252068	     16.65603938	     13.88887556	    -31.13980960	      1.74767107	     -1.34729030
      1.28000000	     24.04890345	     -2.68974803	      2.13293483	      0.00039996	      0.96518908	     -0.01665677	     -5.16011203	      2.29729991	    -23.94911608	     -2.39185594	      5.61245017	     10.27875202	     36.36177920	    -43.06157126	      1.73154727	    -15.68265563	      4.34851146	     13.45793828	     16.63628372	     13.91463957	    -31.11961097	      1.83201835	     -1.39271557
      1.28500000	     24.06519764	     -2.73154514	      2.21050674	      0.00636291	      0.96420810	     -0.01600051	     -5.33148918	      2.66154803	    -24.11363175	     -0.84194877	      4.93740288	     10.84835596	     36.46226435	    -43.40817888	      1.58994158	    -15.74904257	      4.20839468	     13.67724443	     16.73193669	     13.97724511	    -31.12993005	      1.85923515	     -1.42243540
      1.29000000	     24.05743834	     -2.82056557	      2.25952065	      0.01249616	      0.96313827	     -0.01527305	     -5.46611385	      3.04890952	    -24.12290573	      0.54432268	      4.32481272	     11.27452630	     36.48135651	    -43.76102324	      1.43097700	    -15.86033953	      4.10764527	     13.87772622	     16.78732796	     14.06369916	    -31.07618062	      1.92971510	     -1.38841957
      1.29500000	     24.03071615	     -2.91661124	      2.31820465	      0.01865101	      0.96208757	     -0.01451392	     -5.58640116	      3.43958852	    -24.12951814	      1.82061207	      3.65311121	     11.70236639	     36.46870839	    -44.07766309	      1.24704158	    -15.98285282	      3.98208722	     14.06116149	     16.89707647	     14.17949687	    -31.01598858	      2.00112415	     -1.35308892
      1.30000000	     23.98884010	     -2.92670012	      2.31838561	      0.02448518	      0.96107809	     -0.01374175	     -5.63159352	      3.69202570	    -24.07291859	      2.88627169	      3.04999005	     12.23090852	     36.43667739	    -44.32303216	      1.16168646	    -16.01338556	      3.77950830	     14.21812992	     16.92579618	     14.29126961	    -30.97823466	      1.96233055	     -1.30406371
      1.30500000	     24.01272766	     -3.02146182	      2.40153956	      0.03050125	      0.96014507	     -0.01309658	     -5.71850538	      4.01862319	    -24.21126941	      3.72895027	      2.54290127	     12.91852044	     36.38638324	    -44.68460260	      0.95674407	    -16.05935114	      3.65242810	     14.34244279	     17.03856486	     14.48607451	    -30.97632645	      2.06110768	     -1.32100224
      1.31000000	     24.02571591	     -3.05171231	      2.45039942	      0.03647146	      0.95922484	     -0.01243855	     -5.70968131	      4.21796532	    -24.33770371	      4.24569498	      2.24245493	     13.76712184	     36.28906055	    -45.03893784	      0.82660359	    -16.07414852	      3.54124926	     14.37522317	     17.14980958	     14.76289805	    -30.98336304	      2.07850969	     -1.30810995
      1.31500000	     24.02839876	     -3.03365066	      2.46559735	      0.04243945	      0.95834387	     -0.01194384	     -5.66456708	      4.31384917	    -24.39974591	      4.58048547	      2.01056832	     14.61414288	     35.98962074	    -45.30464915	      0.75739509	    -16.13934847	      3.27391524	     14.42622715	     17.31818685	     15.30214473	    -30.97450758	      2.06071168	     -1.29740788
      1.32000000	     24.04660559	     -3.16560874	      2.53920868	      0.04871830	      0.95746044	     -0.01143339	     -5.71370286	      4.59132040	    -24.37914427	      4.89596848	      1.91996033	     15.18823865	     34.95399990	    -45.63711038	      0.52825259	    -16.30596537	      3.09275022	     14.35696773	     17.46360264	     16.38721973	    -30.93633987	      2.20434580	     -1.23014164
      1.32500000	     24.13330572	     -3.23585654	      2.64019828	      0.05491804	      0.95672450	     -0.01105878	     -5.78866570	      4.76817440	    -24.30783621	      4.96761763	      1.83408278	     15.59617955	     34.72838027	    -46.02755851	      0.33260666	    -16.30200519	      2.87754686	     14.36971938	     17.46683136	     16.56938151	    -30.99438067	      2.32259813	     -1.21231100
      1.33000000	     24.20091557	     -3.24777938	      2.74354369	      0.06105779	      0.95603265	     -0.01079922	     -5.79815904	      4.83730863	    -24.30041260	      4.77370089	      1.97796936	     16.24340231	     33.52897683	    -46.34881787	      0.16877352	    -16.23252617	      2.57950435	     14.29222119	     17.42693613	     17.64089356	    -31.03621797	      2.38840918	     -1.19441383
      1.33500000	     24.26949404	     -3.29902174	      2.86850983	      0.06729112	      0.95530365	     -0.01058966	     -5.84409842	      4.93671656	    -24.10183670	      4.52583792	      1.95467854	     16.37028428	     33.49551201	    -46.66398389	     -0.04086804	    -16.20339052	      2.24857551	     14.40779068	     17.46918390	     17.68947652	    -31.06729283	      2.51115332	     -1.23169579
      1.34000000	     24.40490315	     -3.32567715	      3.07517540	      0.07370649	      0.95471606	     -0.01052686	     -5.99798221	      5.00916415	    -24.02129243	      4.18301347	      2.00556588	     16.56874007	     33.32394571	    -47.01966083	     -0.30507985	    -16.22796887	      1.84846979	     14.42210550	     17.86537256	     17.89179747	    -31.15445308	      2.65535875	     -1.34450876
      1.34500000	     24.47348935	     -3.36382580	      3.24091932	      0.08015842	      0.95406620	     -0.01047309	     -6.03036173	      5.05476551	    -24.06289016	      3.60594611	      2.10877528	     17.04144638	     32.05134215	    -47.28901101	     -0.54027884	    -16.23930429	      1.42521014	     14.25122496	     17.88383858	     19.25805902	    -31.15806583	      2.80389887	     -1.37636604
      1.35000000	     24.58792436	     -3.39716456	      3.46448271	      0.08660376	      0.95345459	     -0.01041824	     -6.16560432	      5.11025056	    -23.91872441	      3.01584380	      2.15085352	     16.96218471	     32.00441359	    -47.62665064	     -0.82436773	    -16.08219907	      1.04099541	     14.25614934	     17.95121573	     19.36068145	    -31.21198118	      2.95976787	     -1.45199133
